<svg width="83" height="82" viewBox="0 0 83 82" fill="none" xmlns="http://www.w3.org/2000/svg">
<g opacity="0.99">
<path opacity="0.99" d="M82.3125 41C82.3125 51.7848 78.0283 62.1279 70.4023 69.7539C62.7763 77.3799 52.4332 81.6641 41.6484 81.6641C36.3083 81.6641 31.0205 80.6123 26.087 78.5687C21.1534 76.5252 16.6706 73.5299 12.8946 69.7539C9.11857 65.9779 6.12327 61.4951 4.07971 56.5615C2.03615 51.6279 0.984344 46.3401 0.984344 41C0.984345 30.2152 5.26859 19.8722 12.8946 12.2462C20.5206 4.62018 30.8636 0.335937 41.6484 0.335938C52.4332 0.335937 62.7763 4.62018 70.4023 12.2462C78.0283 19.8722 82.3125 30.2152 82.3125 41Z" fill="#31323A"/>
</g>
<path d="M42.1875 13L18 31.8125H66.375L42.1875 13ZM66.375 31.8125L42.1875 42.5625L61 56L18 33.2367V61.375H66.375V31.8125Z" fill="white"/>
</svg>
