<svg width="51" height="47" viewBox="0 0 51 47" fill="none" xmlns="http://www.w3.org/2000/svg">
<path d="M30.6797 28.2734C25.1016 29.7422 20.3203 31.9453 14.3438 33.4141C13.1325 33.7335 12.1484 34.4752 11.3555 35.4152C20.5952 38.6318 31.102 35.7714 39.4453 31.5781C39.5808 31.5157 39.7202 31.4643 39.8637 31.4165C37.3854 29.0886 33.8592 27.7851 30.6797 28.2734Z" fill="url(#paint0_linear_7_8)"/>
<path d="M48.2109 16.8906C47.928 15.8442 47.4419 14.794 47.3304 13.6153C40.8996 16.4574 31.1857 19.74 33.4687 25.7031C34.413 27.8732 37.4451 29.7863 41.0032 30.4545C44.8959 26.6578 49.7051 22.7436 48.2109 16.8906Z" fill="url(#paint1_linear_7_8)"/>
<path d="M47.9281 13.3473C47.6611 12.914 47.3583 12.5101 47.0156 12.1466C43.9038 15.2383 38.011 16.3876 34.2656 18.3594C30.6797 20.1953 31.4766 25.3359 27.4922 27.9063C21.9141 30.8438 16.336 32.3125 10.3594 31.9453C9.56251 31.9453 8.3672 31.9453 7.17189 31.5781C5.57814 31.211 4.38282 30.1094 3.58595 29.0078C2.59782 27.1829 2.49423 25.2956 2.97236 23.5257C2.05595 25.0716 1.54595 26.7349 1.43439 28.4093C2.97236 32.654 6.30329 35.2757 10.455 36.6894C18.5672 39.4506 29.835 37.5927 37.0547 34.1485C38.3058 33.572 39.4692 32.8853 40.557 32.1179C40.3378 31.8756 40.1028 31.6442 39.8637 31.4166C39.7203 31.4643 39.5808 31.5157 39.4453 31.5781C31.102 35.7714 20.5952 38.6318 11.3555 35.4152C12.1484 34.4752 13.1285 33.7335 14.3438 33.4141C20.3203 31.9453 25.1016 29.7422 30.6797 28.2735C34.166 27.7374 38.0747 29.353 40.557 32.1179C41.2024 31.6626 41.812 31.1706 42.3978 30.6528C45.657 27.7814 48.0197 24.0435 49.4381 19.9493C49.4899 17.4377 49.0158 15.1245 47.9281 13.3473ZM41.0032 30.4545C41.2303 30.4986 41.4574 30.5353 41.6885 30.5684C41.4614 30.5353 41.2303 30.4986 41.0032 30.4545ZM41.0032 30.4545C37.4452 29.7863 34.4131 27.8732 33.4688 25.7031C31.1857 19.74 40.8996 16.4574 47.3304 13.6153C47.442 14.7977 47.9281 15.8442 48.211 16.8906C49.7051 22.7436 44.896 26.6578 41.0032 30.4545Z" fill="#F5F7EA"/>
<path d="M47.0157 12.147C46.0196 11.0859 44.7007 10.3405 43.0153 10.0431C36.6523 8.91946 38.6843 12.1617 29.2095 14.7834C23.2887 16.4211 10.1682 16.1861 5.31518 20.6548C4.35495 21.5397 3.57401 22.5091 2.97237 23.5299C2.49425 25.296 2.59784 27.1834 3.58597 29.0083C4.38284 30.1099 5.57815 31.2114 7.1719 31.5786C8.36722 31.9458 9.56253 31.9458 10.3594 31.9458C16.336 32.313 21.9141 30.8442 27.4922 27.9067C33.668 25.7954 30.6797 20.1958 34.2657 18.3599C38.011 16.3881 43.9039 15.2388 47.0157 12.147Z" fill="url(#paint2_linear_7_8)"/>
<path d="M37.0547 34.1484C26.1375 39.3515 5.97657 40.9488 1.4304 28.413C1.24313 31.2146 2.17149 34.053 4.17563 36.4287C8.16798 41.1617 13.7341 43.3942 24.0019 42.0797C34.2736 40.7652 43.6847 36.8216 47.2507 29.0666C48.5934 26.1474 49.3784 22.9162 49.4381 19.953C47.3344 26.0189 43.1627 31.3321 37.0547 34.1484Z" fill="url(#paint3_linear_7_8)"/>
<path d="M38.1823 19.9493C37.6763 21.0545 36.4092 22.3984 34.1979 22.3984C31.9866 22.3984 30.1458 21.0876 30.1458 19.8906C30.1458 18.6899 32.2695 18.0546 34.4848 17.7792C36.6802 17.5075 38.7162 18.789 38.1823 19.9493Z" fill="#F5F7EA"/>
<path d="M34.4888 21.5723C36.1414 21.5723 37.4811 20.8456 37.4811 19.9493C37.4811 19.053 36.1414 18.3263 34.4888 18.3263C32.8362 18.3263 31.4965 19.053 31.4965 19.9493C31.4965 20.8456 32.8362 21.5723 34.4888 21.5723Z" fill="#FFDECD"/>
<path d="M34.4888 20.9737C35.5318 20.9737 36.3773 20.5151 36.3773 19.9493C36.3773 19.3835 35.5318 18.9248 34.4888 18.9248C33.4457 18.9248 32.6002 19.3835 32.6002 19.9493C32.6002 20.5151 33.4457 20.9737 34.4888 20.9737Z" fill="url(#paint4_radial_7_8)"/>
<g opacity="0.2">
<path opacity="0.2" d="M40.7841 10.9128C41.3379 10.9128 41.9913 10.9826 42.7882 11.1221C44.1269 11.3571 45.2466 11.9446 46.1112 12.8662C46.3901 13.1637 46.653 13.5088 46.8841 13.8907C47.8005 15.3815 48.2707 17.412 48.2428 19.7694C48.1153 20.1219 47.9719 20.5037 47.7966 20.9334C47.6252 21.3483 47.7487 21.7999 48.0675 22.0973C47.7727 24.2748 47.1152 26.533 46.147 28.6333C42.1109 37.4127 30.4326 40.1409 23.8345 40.9855C21.9579 41.2241 20.2048 41.3453 18.619 41.3453C12.5468 41.3453 8.38312 39.6195 5.11593 35.7457C3.34687 33.6491 2.45835 31.0824 2.61773 28.5158C2.61773 28.4974 2.62171 28.4754 2.62171 28.4534C2.72929 26.9148 3.19546 25.4314 4.01624 24.0508C4.58202 23.0998 5.29921 22.2148 6.15585 21.4254C9.14015 18.6752 16.1766 17.8012 21.8264 17.0962C24.7589 16.7327 27.528 16.3876 29.5481 15.8295C34.0863 14.5737 36.1184 13.171 37.6045 12.1466C38.8078 11.3277 39.4094 10.9128 40.7841 10.9128ZM40.7841 9.81125C36.9949 9.81125 37.3575 12.5248 29.2094 14.7793C23.2887 16.417 10.1681 16.182 5.31515 20.6506C4.35491 21.5355 3.57398 22.5049 2.97233 23.5257C2.05593 25.0716 1.54593 26.7349 1.43437 28.4093C1.43437 28.4203 1.43437 28.4313 1.43437 28.4313C1.43437 28.4313 1.43437 28.424 1.43437 28.4093C1.2471 31.2109 2.17546 34.0493 4.1796 36.425C7.41093 40.2548 11.6742 42.4505 18.6269 42.4505C20.2645 42.4505 22.0495 42.3294 24.0059 42.0797C34.2776 40.7652 43.6887 36.8216 47.2547 29.0666C48.5974 26.1474 49.3823 22.9162 49.4421 19.953C49.4301 19.9897 49.4182 20.0227 49.4062 20.0595C49.2548 20.4854 49.0915 20.9077 48.9241 21.3226C49.0955 20.904 49.2588 20.4854 49.4062 20.0595C49.4182 20.0227 49.4301 19.9897 49.4421 19.953C49.4939 17.4414 49.0198 15.1281 47.928 13.3509C47.6611 12.9177 47.3583 12.5137 47.0156 12.1502C46.0195 11.0891 44.7007 10.3437 43.0153 10.0462C42.1268 9.88469 41.4016 9.81125 40.7841 9.81125Z" fill="#424242"/>
</g>
<defs>
<linearGradient id="paint0_linear_7_8" x1="11.3569" y1="32.484" x2="39.8638" y2="32.484" gradientUnits="userSpaceOnUse">
<stop stop-color="#B63B3B"/>
<stop offset="0.8818" stop-color="#D64449"/>
</linearGradient>
<linearGradient id="paint1_linear_7_8" x1="33.1281" y1="22.0345" x2="48.49" y2="22.0345" gradientUnits="userSpaceOnUse">
<stop stop-color="#9E3333"/>
<stop offset="0.8818" stop-color="#D64449"/>
</linearGradient>
<linearGradient id="paint2_linear_7_8" x1="2.69594" y1="20.907" x2="47.0162" y2="20.907" gradientUnits="userSpaceOnUse">
<stop stop-color="#A83737"/>
<stop offset="0.8818" stop-color="#D64449"/>
</linearGradient>
<linearGradient id="paint3_linear_7_8" x1="25.4238" y1="31.9453" x2="25.4238" y2="42.5168" gradientUnits="userSpaceOnUse">
<stop offset="3.63372e-05" stop-color="#FF9D85"/>
<stop offset="0.8818" stop-color="#ECDEC9"/>
</linearGradient>
<radialGradient id="paint4_radial_7_8" cx="0" cy="0" r="1" gradientUnits="userSpaceOnUse" gradientTransform="translate(34.4882 19.9508) scale(1.55088 1.42924)">
<stop stop-color="#F79792"/>
<stop offset="0.8818" stop-color="#EE7276"/>
</radialGradient>
</defs>
</svg>
