<svg width="86" height="86" viewBox="0 0 86 86" fill="none" xmlns="http://www.w3.org/2000/svg">
<circle cx="43" cy="43" r="43" fill="#31323A"/>
<g clip-path="url(#clip0_14_197)">
<path d="M69.7705 57.8525L69.5167 57.1026C68.9155 55.3507 66.9449 53.5235 65.1345 53.0421L58.4342 51.2476C56.6172 50.763 54.0252 51.4146 52.6958 52.7179L50.2709 55.0953C41.458 52.7606 34.5474 45.9853 32.1692 37.3469L34.5943 34.9694C35.9237 33.666 36.5883 31.1283 36.094 29.3469L34.2669 22.7747C33.7726 20.9966 31.9054 19.0646 30.1219 18.4817L29.357 18.2296C27.57 17.6467 25.0215 18.2362 23.6922 19.5394L20.0648 23.099C19.4167 23.7309 19.0026 25.5385 19.0026 25.5451C18.8757 36.836 23.3915 47.7142 31.538 55.701C39.6644 63.6681 50.7186 68.0889 62.2018 67.9939C62.2619 67.9939 64.159 67.5944 64.8071 66.9623L68.4345 63.406C69.7638 62.1029 70.365 59.6044 69.7705 57.8525Z" fill="white"/>
</g>
<defs>
<clipPath id="clip0_14_197">
<rect width="51" height="50" fill="white" transform="translate(19 18)"/>
</clipPath>
</defs>
</svg>
