<svg width="86" height="86" viewBox="0 0 86 86" fill="none" xmlns="http://www.w3.org/2000/svg">
<circle cx="43" cy="43" r="43" fill="#31323A"/>
<path fill-rule="evenodd" clip-rule="evenodd" d="M44.1048 67.5703H44.0945C39.9278 67.5689 35.8337 66.5285 32.1974 64.5545L19 68L22.5318 55.1611C20.3532 51.4037 19.2069 47.1415 19.2086 42.7747C19.2142 29.1141 30.3823 18 44.1044 18C50.7642 18.0029 57.015 20.5832 61.7153 25.2664C66.4156 29.9493 69.0026 36.1742 69 42.7943C68.9946 56.4519 57.8309 67.5648 44.1048 67.5703ZM32.809 60.0693L33.5645 60.5155C36.7415 62.3919 40.3833 63.3846 44.0964 63.386H44.1048C55.5095 63.386 64.792 54.1478 64.7965 42.7929C64.7988 37.2903 62.6486 32.1165 58.7419 28.224C54.8351 24.3315 49.6398 22.1867 44.1128 22.1848C32.6991 22.1848 23.4166 31.4221 23.4121 42.7762C23.4105 46.6674 24.5045 50.4568 26.5757 53.7354L27.0678 54.5146L24.9774 62.1137L32.809 60.0693ZM55.7949 48.1285C56.2288 48.3372 56.5218 48.4781 56.6469 48.686C56.8024 48.9441 56.8024 50.1837 56.2843 51.6299C55.7656 53.0761 53.2805 54.3959 52.0853 54.5735C51.0137 54.733 49.6574 54.7995 48.1673 54.3281C47.2638 54.0429 46.1053 53.662 44.6211 53.0242C38.7895 50.5181 34.8485 44.8931 34.1036 43.8299C34.0514 43.7554 34.015 43.7033 33.9945 43.6762L33.9897 43.6696C33.6605 43.2325 31.4546 40.3035 31.4546 37.2723C31.4546 34.4205 32.862 32.9259 33.5099 32.2379C33.5544 32.1908 33.5952 32.1474 33.6317 32.1077C34.202 31.4879 34.8758 31.3328 35.2905 31.3328C35.7052 31.3328 36.1203 31.3367 36.4828 31.3549C36.5275 31.3571 36.5741 31.3568 36.622 31.3565C36.9845 31.3544 37.4365 31.3518 37.8824 32.4176C38.0539 32.8276 38.3049 33.4358 38.5696 34.0771C39.1048 35.374 39.6963 36.807 39.8003 37.0143C39.9559 37.3242 40.0595 37.6856 39.8521 38.0988C39.821 38.1608 39.7923 38.2193 39.7647 38.2752C39.6089 38.5917 39.4945 38.8243 39.23 39.1316C39.1262 39.2523 39.0188 39.3825 38.9113 39.5127C38.6973 39.7721 38.4834 40.0315 38.2971 40.2162C37.9855 40.5249 37.6614 40.8597 38.0243 41.4795C38.3871 42.0993 39.6356 44.1266 41.4847 45.7683C43.4727 47.5328 45.2005 48.2787 46.0762 48.6566C46.2471 48.7306 46.3856 48.7903 46.4873 48.841C47.1091 49.1509 47.4719 49.099 47.8349 48.686C48.1978 48.2728 49.39 46.8781 49.8044 46.2585C50.2191 45.6391 50.6339 45.7422 51.204 45.9486C51.7745 46.1556 54.8327 47.653 55.4548 47.9629C55.5762 48.0233 55.6897 48.078 55.7949 48.1285Z" fill="#FDFDFD"/>
</svg>
